<?xml version="1.0" standalone="no"?>
<!DOCTYPE svg PUBLIC "-//W3C//DTD SVG 20010904//EN"
 "http://www.w3.org/TR/2001/REC-SVG-20010904/DTD/svg10.dtd">
<svg version="1.0" xmlns="http://www.w3.org/2000/svg"
 width="512.000000pt" height="512.000000pt" viewBox="0 0 512.000000 512.000000"
 preserveAspectRatio="xMidYMid meet">
<metadata>
Created by potrace 1.14, written by Peter Selinger 2001-2017
</metadata>
<g transform="translate(0.000000,512.000000) scale(0.100000,-0.100000)"
fill="#000000" stroke="none">
<path d="M4848 4985 c-1 -1 -39 -6 -83 -9 -166 -14 -191 -17 -230 -21 -22 -3
-78 -7 -125 -11 -162 -11 -265 -42 -346 -101 -59 -43 -2591 -2578 -2608 -2611
-30 -59 -15 -93 89 -197 94 -95 130 -115 185 -107 17 3 369 348 1116 1094 600
600 1098 1094 1105 1099 8 5 36 9 63 9 43 0 53 -4 81 -34 26 -28 33 -44 33
-77 1 -24 -4 -52 -10 -63 -6 -12 -494 -504 -1085 -1094 -590 -590 -1081 -1084
-1090 -1098 -23 -36 -25 -81 -5 -112 30 -47 175 -184 209 -199 30 -12 38 -11
73 4 50 22 2585 2551 2634 2628 62 95 74 143 92 345 7 87 11 125 13 125 1 0 3
32 5 70 5 80 16 210 22 240 7 38 -8 86 -33 102 -21 14 -95 27 -105 18z"/>
<path d="M1404 4941 c-53 -40 -1030 -1022 -1037 -1043 -4 -11 4 -30 20 -49 37
-44 586 -592 618 -618 24 -18 30 -19 54 -6 33 17 1034 1021 1051 1053 15 31
16 584 1 624 -6 16 -25 37 -43 48 -31 19 -51 20 -329 20 l-296 0 -39 -29z
m638 -30 c6 -1 21 -35 23 -56 1 -5 -66 -79 -149 -162 -156 -158 -182 -175
-212 -135 -28 37 -16 56 139 209 112 112 158 151 172 148 11 -2 23 -4 27 -4z
m-523 -569 c5 -9 5 -26 1 -37 -8 -20 -546 -561 -573 -576 -19 -11 -58 12 -69
40 -8 23 14 47 274 309 156 156 292 287 303 292 23 9 51 -3 64 -28z"/>
<path d="M68 3874 c-13 -7 -32 -28 -42 -47 -39 -71 -44 -65 412 -520 229 -229
426 -424 437 -432 43 -31 123 -8 148 43 11 22 15 87 8 124 0 4 -78 83 -172
175 -94 92 -251 246 -348 341 -345 340 -332 329 -378 329 -22 0 -51 -6 -65
-13z"/>
<path d="M1866 3771 c-10 -4 -102 -91 -206 -194 -155 -155 -186 -192 -183
-211 3 -13 104 -122 242 -260 l238 -238 212 212 213 212 -224 224 c-248 250
-265 264 -292 255z"/>
<path d="M3075 2170 l-210 -210 885 -885 c487 -487 900 -895 917 -906 38 -24
76 -22 118 5 17 11 95 86 175 166 140 140 145 146 145 187 l0 41 -905 906
c-498 498 -907 906 -910 906 -3 0 -100 -95 -215 -210z m1692 -1349 c7 -15 8
-31 3 -41 -17 -31 -283 -292 -309 -301 -22 -9 -29 -7 -48 16 -19 22 -21 30
-12 48 6 12 75 86 153 165 124 125 145 142 171 140 20 -2 33 -11 42 -27z"/>
<path d="M418 2325 c-3 -3 -36 -5 -74 -6 -116 -1 -161 -24 -184 -94 -20 -59 5
-120 62 -155 27 -16 54 -19 241 -20 l211 -1 198 -198 199 -198 -97 -159 c-139
-226 -145 -240 -131 -271 6 -14 43 -46 82 -71 90 -59 171 -140 228 -229 51
-80 56 -84 96 -85 29 -1 45 8 219 124 40 26 74 48 77 48 2 0 27 14 55 32 l50
31 198 -197 197 -196 1 -215 c1 -209 1 -215 25 -250 38 -55 111 -74 169 -43
73 40 74 42 75 326 1 218 -2 260 -16 291 -22 47 -1483 1506 -1523 1521 -16 6
-74 10 -130 10 -140 -1 -209 0 -217 5 -3 3 -8 2 -11 0z"/>
<path d="M434 935 c-139 -44 -233 -136 -279 -276 -54 -161 8 -342 153 -446
166 -120 398 -96 534 55 34 37 106 162 93 162 -2 0 0 12 6 27 12 32 14 147 2
165 -4 7 -9 22 -10 33 -4 28 -32 82 -71 137 -85 121 -286 188 -428 143z"/>
</g>
</svg>
